<svg width="30" height="31" viewBox="0 0 30 31" fill="none" xmlns="http://www.w3.org/2000/svg">
<path d="M10.62 14.5399H26.5801C27.2071 14.5399 27.7201 14.0269 27.7201 13.3999C27.7201 12.7729 27.2071 12.2599 26.5801 12.2599H10.62C9.99302 12.2599 9.48002 12.7729 9.48002 13.3999C9.48002 14.0269 9.99302 14.5399 10.62 14.5399Z" fill="#FF9000"/>
<path d="M12.9 7.69985H24.3001C24.9271 7.69985 25.4401 8.21285 25.4401 8.83985C25.4401 9.46686 24.9271 9.97986 24.3001 9.97986H12.9C12.273 9.97986 11.76 9.46686 11.76 8.83985C11.76 8.21285 12.273 7.69985 12.9 7.69985Z" fill="#FF9000"/>
<path d="M30.0001 28.2199V19.0999C30.0001 17.8459 28.9741 16.8199 27.7201 16.8199H9.48002C8.22601 16.8199 7.20001 17.8459 7.20001 19.0999V28.2199C7.20001 29.4739 8.22601 30.4999 9.48002 30.4999H27.7201C28.9741 30.4999 30.0001 29.4739 30.0001 28.2199Z" fill="#FF9000"/>
<path d="M21.3228 22.71C21.8924 23.0303 21.8924 23.9444 21.3228 24.2647L16.8684 26.7695C16.3546 27.0584 15.75 26.6382 15.75 25.9921L15.75 20.9826C15.75 20.3365 16.3546 19.9163 16.8684 20.2052L21.3228 22.71Z" fill="white"/>
<circle cx="12.96" cy="12.9794" r="5.76001" fill="#6D287C"/>
<path fill-rule="evenodd" clip-rule="evenodd" d="M12.96 7.21938C9.7805 7.21938 7.20001 9.79987 7.20001 12.9794C7.20001 16.1589 9.7805 18.7394 12.96 18.7394C16.1396 18.7394 18.72 16.1589 18.72 12.9794C18.72 9.79987 16.1396 7.21938 12.96 7.21938ZM12.96 8.94765C13.9161 8.94765 14.688 9.7195 14.688 10.6757C14.688 11.6318 13.9161 12.4037 12.96 12.4037C12.0038 12.4037 11.2319 11.6318 11.2319 10.6757C11.2319 9.7195 12.0038 8.94765 12.96 8.94765ZM9.50372 15.2724C10.2468 16.3899 11.5197 17.1271 12.9597 17.1271C14.3997 17.1271 15.6727 16.3899 16.4157 15.2724C16.3985 14.1262 14.106 13.4983 12.9597 13.4983C11.8077 13.4983 9.521 14.1262 9.50372 15.2724Z" fill="#A058B0"/>
<circle cx="8.39998" cy="5.06001" r="4.56001" fill="#195297"/>
<path fill-rule="evenodd" clip-rule="evenodd" d="M8.39985 0.499931C5.88273 0.499931 3.83984 2.54282 3.83984 5.05994C3.83984 7.57707 5.88273 9.61995 8.39985 9.61995C10.917 9.61995 12.9599 7.57707 12.9599 5.05994C12.9599 2.54282 10.917 0.499931 8.39985 0.499931ZM8.39984 1.86824C9.1568 1.86824 9.76784 2.47928 9.76784 3.23625C9.76784 3.99321 9.1568 4.60425 8.39984 4.60425C7.64288 4.60425 7.03184 3.99321 7.03184 3.23625C7.03184 2.47928 7.64288 1.86824 8.39984 1.86824ZM5.66367 6.87492C6.25191 7.75956 7.25968 8.34325 8.39968 8.34325C9.53968 8.34325 10.5474 7.75956 11.1357 6.87492C11.122 5.96748 9.30712 5.47044 8.39968 5.47044C7.48768 5.47044 5.67735 5.96748 5.66367 6.87492Z" fill="#3A88E9"/>
<circle cx="2.88001" cy="8.66018" r="2.88001" fill="#27793C"/>
<path fill-rule="evenodd" clip-rule="evenodd" d="M2.88001 5.78017C1.29024 5.78017 0 7.07042 0 8.66018C0 10.2499 1.29024 11.5402 2.88001 11.5402C4.46977 11.5402 5.76001 10.2499 5.76001 8.66018C5.76001 7.07042 4.46977 5.78017 2.88001 5.78017ZM2.87992 6.64477C3.358 6.64477 3.74392 7.03069 3.74392 7.50878C3.74392 7.98686 3.358 8.37278 2.87992 8.37278C2.40184 8.37278 2.01592 7.98686 2.01592 7.50878C2.01592 7.03069 2.40184 6.64477 2.87992 6.64477ZM1.15166 9.80628C1.52318 10.365 2.15966 10.7336 2.87966 10.7336C3.59967 10.7336 4.23615 10.365 4.60767 9.80628C4.59903 9.23316 3.45279 8.91924 2.87966 8.91924C2.30366 8.91924 1.1603 9.23316 1.15166 9.80628Z" fill="#34C759"/>
</svg>
