<svg width="30" height="30" viewBox="0 0 30 30" fill="none" xmlns="http://www.w3.org/2000/svg">
<circle cx="18.2381" cy="18.9306" r="10.3177" fill="#3A88E9"/>
<circle cx="24.3497" cy="6.40174" r="5.65014" fill="#FF9000"/>
<path d="M21.156 5.66816C21.1936 5.54509 21.2547 5.43731 21.379 5.40151C21.4759 5.37342 21.5793 5.36741 21.6802 5.35762C22.2036 5.30727 22.7271 5.25824 23.2508 5.21051C23.2929 5.20659 23.3149 5.18961 23.3319 5.14767C23.5612 4.58368 23.7933 4.02073 24.0232 3.45648C24.0698 3.34204 24.14 3.25725 24.2566 3.2225C24.4273 3.17155 24.593 3.25764 24.6671 3.43741C24.824 3.81719 24.9789 4.19789 25.1346 4.57819C25.2129 4.76933 25.2924 4.95994 25.3686 5.15185C25.3833 5.18895 25.4019 5.20581 25.4401 5.20934C25.825 5.24417 26.2099 5.27997 26.5947 5.31672C26.8057 5.33667 27.0166 5.35722 27.2277 5.37839C27.3746 5.39315 27.4772 5.47428 27.5234 5.61917C27.5715 5.77006 27.5301 5.90188 27.4163 6.00626C26.9746 6.41152 26.5322 6.81591 26.0892 7.21943C26.0491 7.25588 26.0337 7.28658 26.0466 7.34484C26.1794 7.94176 26.3088 8.53945 26.439 9.13715C26.4729 9.29392 26.4381 9.4281 26.312 9.52386C26.186 9.61962 26.0527 9.61531 25.9206 9.53222C25.4163 9.21754 24.9123 8.90238 24.4084 8.58675C24.3655 8.5597 24.3351 8.55905 24.2917 8.58675C23.7902 8.90195 23.2878 9.2158 22.7847 9.5283C22.6141 9.63451 22.4307 9.60669 22.3203 9.45932C22.2503 9.36591 22.2326 9.26009 22.2577 9.14577C22.3879 8.54821 22.5174 7.95051 22.6501 7.3536C22.6637 7.29272 22.6528 7.2577 22.6074 7.21642C22.1664 6.81678 21.7284 6.41374 21.2883 6.01319C21.2227 5.95388 21.1848 5.87993 21.156 5.79841V5.66816Z" fill="white"/>
<circle cx="7.36975" cy="10.578" r="7.36975" fill="#FF9000"/>
<path opacity="0.93" d="M7.85755 13.8302C7.56181 14.08 7.10652 14.08 6.81077 13.8266L6.76797 13.7904C4.725 12.0712 3.39025 10.9456 3.44084 9.54124C3.46419 8.92595 3.80274 8.33599 4.35142 7.98852C5.37875 7.33703 6.64734 7.64106 7.33222 8.38666C8.0171 7.64106 9.28569 7.33341 10.313 7.98852C10.8617 8.33599 11.2002 8.92595 11.2236 9.54124C11.2781 10.9456 9.93944 12.0712 7.89647 13.7977L7.85755 13.8302Z" fill="white"/>
<path d="M18.6556 13.319L16.2191 16.1275C16.0563 16.315 15.964 16.5736 15.964 16.8423V21.9065C15.964 22.4642 16.3598 22.9204 16.8436 22.9204H20.8019C21.1538 22.9204 21.4704 22.6771 21.6112 22.307L23.045 18.4492C23.4144 17.4455 22.7767 16.3302 21.8311 16.3302H19.3461L19.764 14.0085C19.8079 13.755 19.742 13.4965 19.5836 13.314C19.3241 13.02 18.9107 13.02 18.6556 13.319ZM14.2047 22.9204C14.6885 22.9204 15.0843 22.4642 15.0843 21.9065V17.8511C15.0843 17.2934 14.6885 16.8372 14.2047 16.8372C13.7209 16.8372 13.3251 17.2934 13.3251 17.8511V21.9065C13.3251 22.4642 13.7209 22.9204 14.2047 22.9204Z" fill="white"/>
</svg>
