<svg width="30" height="31" viewBox="0 0 30 31" fill="none" xmlns="http://www.w3.org/2000/svg">
<path opacity="0.7" d="M22.1058 28.2391L25.1888 30.5946C25.7097 30.9926 26.4405 30.6017 26.4405 29.925V18.3036C26.4405 16.4746 25.029 14.9918 23.2879 14.9918H13.8304C12.0893 14.9918 10.6779 16.4746 10.6779 18.3036V24.9273C10.6779 26.7563 12.0893 28.2391 13.8304 28.2391H22.1058Z" fill="#3A88E9"/>
<path opacity="0.7" d="M26.9238 9.64691L29.1117 11.3186C29.4814 11.601 30 11.3236 30 10.8434V2.59594C30 1.2979 28.9984 0.245621 27.7628 0.245621H21.0509C19.8153 0.245621 18.8137 1.2979 18.8137 2.59594V7.29659C18.8137 8.59464 19.8153 9.64691 21.0509 9.64691H26.9238Z" fill="#A058B0"/>
<path opacity="0.93" d="M5.76115 20.3865L1.66358 23.5158C0.971228 24.0445 0 23.5252 0 22.6262V7.1872C0 4.75727 1.8759 2.78743 4.18993 2.78743H16.7597C19.0738 2.78743 20.9496 4.75727 20.9496 7.1872V15.9867C20.9496 18.4167 19.0738 20.3865 16.7597 20.3865H5.76115Z" fill="#FF9000"/>
<path opacity="0.93" d="M10.9175 14.7981C10.6114 15.0566 10.1403 15.0566 9.83419 14.7944L9.78989 14.7569C7.67558 12.9777 6.29424 11.8128 6.34659 10.3594C6.37076 9.72262 6.72113 9.11206 7.28897 8.75247C8.35216 8.07823 9.66504 8.39288 10.3738 9.1645C11.0826 8.39288 12.3955 8.07449 13.4587 8.75247C14.0265 9.11206 14.3769 9.72262 14.4011 10.3594C14.4575 11.8128 13.0721 12.9777 10.9578 14.7644L10.9175 14.7981Z" fill="white"/>
</svg>
